<?xml version="1.0" encoding="UTF-8"?>
<svg id="Layer_1" data-name="Layer 1" xmlns="http://www.w3.org/2000/svg" viewBox="0 0 2136.46 951.09">
  <defs>
    <style>
      .cls-1 {
        fill: #00ef2c;
        stroke: #000;
        stroke-width: 1.37px;
      }

      .cls-1, .cls-2, .cls-3 {
        stroke-miterlimit: 10;
      }

      .cls-2 {
        fill: #01474a;
        stroke-width: 6.64px;
      }

      .cls-2, .cls-3 {
        stroke: #251f20;
      }

      .cls-4 {
        opacity: .17;
      }

      .cls-5 {
        opacity: .33;
      }

      .cls-6 {
        opacity: .67;
      }

      .cls-7 {
        opacity: .5;
      }

      .cls-8 {
        opacity: .83;
      }

      .cls-9 {
        opacity: 0;
      }

      .cls-3 {
        fill: none;
        stroke-width: 6.96px;
      }
    </style>
  </defs>
  <path class="cls-2" d="M2128.11,823.67c-29.99,141.49-528.83,165.56-1114.19,53.77C428.56,765.65-21.65,560.32,8.35,418.83c29.99-141.49,528.83-165.56,1114.19-53.77,585.36,111.79,1035.57,317.12,1005.57,458.61Z"/>
  <path class="cls-3" d="M2131.82,449.71c27.18,142.32-426.98,334.5-1014.38,429.24C530.03,973.69,31.81,935.12,4.64,792.79c-27.18-142.32,426.98-334.5,1014.38-429.24,587.41-94.74,1085.62-56.17,1112.8,86.16Z"/>
  <g>
    <path class="cls-1" d="M1957.66,100.93c-62.65,0-100.93,38.28-100.93,100.93,0-62.65-38.28-100.93-100.93-100.93,62.65,0,100.93-38.28,100.93-100.93,0,62.65,38.28,100.93,100.93,100.93Z"/>
    <path class="cls-1" d="M1957.66,100.93c-62.65,0-100.93,38.28-100.93,100.93,0-62.65-38.28-100.93-100.93-100.93,62.65,0,100.93-38.28,100.93-100.93,0,62.65,38.28,100.93,100.93,100.93Z"/>
  </g>
  <g>
    <path class="cls-1" d="M2027.06,212.2c-43.08,0-69.4,26.32-69.4,69.4,0-43.08-26.32-69.4-69.4-69.4,43.08,0,69.4-26.32,69.4-69.4,0,43.08,26.32,69.4,69.4,69.4Z"/>
    <path class="cls-1" d="M2027.06,212.2c-43.08,0-69.4,26.32-69.4,69.4,0-43.08-26.32-69.4-69.4-69.4,43.08,0,69.4-26.32,69.4-69.4,0,43.08,26.32,69.4,69.4,69.4Z"/>
  </g>
  <g>
    <g class="cls-9">
      <path class="cls-1" d="M240.36,626.12h33.82l28.74,89.61,32.13-89.61h25.08l32.69,89.61,28.74-89.61h33.82l-49.88,137.8h-25.08l-32.69-89.33-32.97,89.33h-24.52l-49.88-137.8Z"/>
      <path class="cls-1" d="M534.83,736.58c22.54,0,40.86-18.04,40.86-41.42s-18.32-41.99-40.86-41.99-41.14,18.32-41.14,41.99,18.04,41.42,41.14,41.42ZM606.12,695.16c0,40.58-31.28,71.58-71.29,71.58s-71.58-31-71.58-71.58,31-71.86,71.58-71.86,71.29,31,71.29,71.86Z"/>
      <path class="cls-1" d="M664.45,647.81c8.74-15.5,23.39-24.52,41.71-24.52,35.22,0,57.21,23.67,57.21,62v78.62h-31.56v-74.68c0-21.7-13.24-35.79-33.25-35.79s-34.1,14.09-34.1,35.79v74.68h-31.28v-137.8h31.28v21.7Z"/>
      <path class="cls-1" d="M860.86,736.86c23.95,0,41.99-18.04,41.99-41.99s-18.04-41.71-41.99-41.71-41.71,18.6-41.71,41.71,18.32,41.99,41.71,41.99ZM788.16,694.88c0-39.73,29.03-71.58,65.94-71.58,21.98,0,38.89,9.86,48.75,27.05v-83.69h31.56v197.26h-31.56v-24.24c-9.86,17.19-26.77,27.05-48.75,27.05-36.92,0-65.94-32.13-65.94-71.86Z"/>
      <path class="cls-1" d="M1066.01,679.66c-1.69-17.19-16.34-29.87-34.94-29.87s-33.53,10.71-38.61,29.87h73.55ZM961.18,694.59c0-40.3,31.28-71.3,71.01-71.3,37.2,0,67.07,29.03,67.07,67.35,0,2.82-.28,8.45-.56,11.84h-107.93c2.82,22.54,18.88,37.48,41.71,37.48,17.75,0,31.28-8.45,34.1-21.42h31c-4.79,29.31-31,48.19-64.81,48.19-40.3,0-71.58-31.28-71.58-72.14Z"/>
      <path class="cls-1" d="M1204.93,655.99h-47.62v107.93h-31.28v-137.8h78.9v29.87Z"/>
      <path class="cls-1" d="M1301.3,738.55c23.39,0,41.71-18.6,41.71-41.71s-18.32-41.99-41.71-41.99-42.27,18.04-42.27,41.99,18.04,41.71,42.27,41.71ZM1227.75,566.66h31.28v85.95c9.86-17.47,26.77-27.62,49.03-27.62,36.63,0,65.94,32.13,65.94,71.86s-29.31,71.58-65.94,71.58c-22.26,0-39.17-10.15-49.03-27.62v23.11h-31.28v-197.26Z"/>
      <path class="cls-1" d="M1442.2,740.81c21.42,0,36.35-14.09,36.35-31.28v-6.2h-21.13c-24.24,0-37.2,6.2-37.2,20.29,0,10.43,8.45,17.19,21.98,17.19ZM1478.55,744.47c-9.02,14.65-23.39,22.26-42.83,22.26-25.93,0-44.24-17.47-44.24-40.58,0-29.03,25.93-45.09,66.79-45.09h20.29v-25.08h-77.49v-29.87h109.06v137.8h-31.56v-19.44Z"/>
      <path class="cls-1" d="M1576.04,647.81c8.74-15.5,23.39-24.52,41.71-24.52,35.22,0,57.21,23.67,57.21,62v78.62h-31.56v-74.68c0-21.7-13.24-35.79-33.25-35.79s-34.1,14.09-34.1,35.79v74.68h-31.28v-137.8h31.28v21.7Z"/>
      <path class="cls-1" d="M1772.45,736.86c23.95,0,41.99-18.04,41.99-41.99s-18.04-41.71-41.99-41.71-41.71,18.6-41.71,41.71,18.32,41.99,41.71,41.99ZM1699.75,694.88c0-39.73,29.03-71.58,65.94-71.58,21.98,0,38.89,9.86,48.75,27.05v-83.69h31.56v197.26h-31.56v-24.24c-9.86,17.19-26.77,27.05-48.75,27.05-36.92,0-65.94-32.13-65.94-71.86Z"/>
    </g>
    <g class="cls-4">
      <polygon class="cls-1" points="249.65 612.57 283.47 612.57 312.21 702.18 344.34 612.57 369.42 612.57 402.11 702.18 430.85 612.57 464.67 612.57 414.79 750.37 389.71 750.37 357.02 661.04 324.05 750.37 299.53 750.37 249.65 612.57"/>
      <path class="cls-1" d="M544.13,723.04c22.54,0,40.86-18.04,40.86-41.42s-18.32-41.99-40.86-41.99-41.14,18.32-41.14,41.99,18.04,41.42,41.14,41.42ZM615.42,681.61c0,40.58-31.28,71.58-71.29,71.58s-71.58-31-71.58-71.58,31-71.86,71.58-71.86,71.29,31,71.29,71.86Z"/>
      <path class="cls-1" d="M673.75,634.27c8.74-15.5,23.39-24.52,41.71-24.52,35.22,0,57.21,23.67,57.21,62v78.62h-31.56v-74.68c0-21.7-13.24-35.79-33.25-35.79s-34.1,14.09-34.1,35.79v74.68h-31.28v-137.8h31.28v21.7Z"/>
      <path class="cls-1" d="M870.16,723.32c23.95,0,41.99-18.04,41.99-41.99s-18.04-41.71-41.99-41.71-41.71,18.6-41.71,41.71,18.32,41.99,41.71,41.99ZM797.45,681.33c0-39.73,29.03-71.58,65.94-71.58,21.98,0,38.89,9.86,48.75,27.05v-83.69h31.56v197.26h-31.56v-24.24c-9.86,17.19-26.77,27.05-48.75,27.05-36.92,0-65.94-32.13-65.94-71.86Z"/>
      <path class="cls-1" d="M1075.3,666.11c-1.69-17.19-16.34-29.87-34.94-29.87s-33.53,10.71-38.61,29.87h73.55ZM970.47,681.05c0-40.3,31.28-71.3,71.01-71.3,37.2,0,67.07,29.03,67.07,67.35,0,2.82-.28,8.45-.56,11.84h-107.93c2.82,22.54,18.88,37.48,41.71,37.48,17.75,0,31.28-8.45,34.1-21.42h31c-4.79,29.31-31,48.19-64.81,48.19-40.3,0-71.58-31.28-71.58-72.14Z"/>
      <polygon class="cls-1" points="1214.23 642.44 1166.6 642.44 1166.6 750.37 1135.32 750.37 1135.32 612.57 1214.23 612.57 1214.23 642.44"/>
      <path class="cls-1" d="M1310.6,725.01c23.39,0,41.71-18.6,41.71-41.71s-18.32-41.99-41.71-41.99-42.27,18.04-42.27,41.99,18.04,41.71,42.27,41.71ZM1237.05,553.11h31.28v85.95c9.86-17.47,26.77-27.62,49.03-27.62,36.63,0,65.94,32.13,65.94,71.86s-29.31,71.58-65.94,71.58c-22.26,0-39.17-10.15-49.03-27.62v23.11h-31.28v-197.26Z"/>
      <path class="cls-1" d="M1451.49,727.26c21.42,0,36.35-14.09,36.35-31.28v-6.2h-21.13c-24.24,0-37.2,6.2-37.2,20.29,0,10.43,8.45,17.19,21.98,17.19ZM1487.84,730.93c-9.02,14.65-23.39,22.26-42.83,22.26-25.93,0-44.24-17.47-44.24-40.58,0-29.03,25.93-45.09,66.79-45.09h20.29v-25.08h-77.49v-29.87h109.06v137.8h-31.56v-19.44Z"/>
      <path class="cls-1" d="M1585.34,634.27c8.74-15.5,23.39-24.52,41.71-24.52,35.22,0,57.21,23.67,57.21,62v78.62h-31.56v-74.68c0-21.7-13.24-35.79-33.25-35.79s-34.1,14.09-34.1,35.79v74.68h-31.28v-137.8h31.28v21.7Z"/>
      <path class="cls-1" d="M1781.75,723.32c23.95,0,41.99-18.04,41.99-41.99s-18.04-41.71-41.99-41.71-41.71,18.6-41.71,41.71,18.32,41.99,41.71,41.99ZM1709.04,681.33c0-39.73,29.03-71.58,65.94-71.58,21.98,0,38.89,9.86,48.75,27.05v-83.69h31.56v197.26h-31.56v-24.24c-9.86,17.19-26.77,27.05-48.75,27.05-36.92,0-65.94-32.13-65.94-71.86Z"/>
    </g>
    <g class="cls-5">
      <polygon class="cls-1" points="258.95 599.03 292.76 599.03 321.51 688.64 353.63 599.03 378.71 599.03 411.4 688.64 440.15 599.03 473.96 599.03 424.08 736.83 399 736.83 366.31 647.5 333.34 736.83 308.83 736.83 258.95 599.03"/>
      <path class="cls-1" d="M553.42,709.49c22.54,0,40.86-18.04,40.86-41.42s-18.32-41.99-40.86-41.99-41.14,18.32-41.14,41.99,18.04,41.42,41.14,41.42ZM624.72,668.07c0,40.58-31.28,71.58-71.29,71.58s-71.58-31-71.58-71.58,31-71.86,71.58-71.86,71.29,31,71.29,71.86Z"/>
      <path class="cls-1" d="M683.04,620.73c8.74-15.5,23.39-24.52,41.71-24.52,35.22,0,57.21,23.67,57.21,62v78.62h-31.56v-74.68c0-21.7-13.24-35.79-33.25-35.79s-34.1,14.09-34.1,35.79v74.68h-31.28v-137.8h31.28v21.7Z"/>
      <path class="cls-1" d="M879.45,709.78c23.95,0,41.99-18.04,41.99-41.99s-18.04-41.71-41.99-41.71-41.71,18.6-41.71,41.71,18.32,41.99,41.71,41.99ZM806.75,667.79c0-39.73,29.03-71.58,65.94-71.58,21.98,0,38.89,9.86,48.75,27.05v-83.69h31.56v197.26h-31.56v-24.24c-9.86,17.19-26.77,27.05-48.75,27.05-36.92,0-65.94-32.13-65.94-71.86Z"/>
      <path class="cls-1" d="M1084.6,652.57c-1.69-17.19-16.34-29.87-34.94-29.87s-33.53,10.71-38.61,29.87h73.55ZM979.77,667.5c0-40.3,31.28-71.3,71.01-71.3,37.2,0,67.07,29.03,67.07,67.35,0,2.82-.28,8.45-.56,11.84h-107.93c2.82,22.54,18.88,37.48,41.71,37.48,17.75,0,31.28-8.45,34.1-21.42h31c-4.79,29.31-31,48.19-64.81,48.19-40.3,0-71.58-31.28-71.58-72.14Z"/>
      <polygon class="cls-1" points="1223.52 628.9 1175.9 628.9 1175.9 736.83 1144.62 736.83 1144.62 599.03 1223.52 599.03 1223.52 628.9"/>
      <path class="cls-1" d="M1319.89,711.47c23.39,0,41.71-18.6,41.71-41.71s-18.32-41.99-41.71-41.99-42.27,18.04-42.27,41.99,18.04,41.71,42.27,41.71ZM1246.34,539.57h31.28v85.95c9.86-17.47,26.77-27.62,49.03-27.62,36.63,0,65.94,32.13,65.94,71.86s-29.31,71.58-65.94,71.58c-22.26,0-39.17-10.15-49.03-27.62v23.11h-31.28v-197.26Z"/>
      <path class="cls-1" d="M1460.79,713.72c21.42,0,36.35-14.09,36.35-31.28v-6.2h-21.13c-24.24,0-37.2,6.2-37.2,20.29,0,10.43,8.45,17.19,21.98,17.19ZM1497.14,717.38c-9.02,14.65-23.39,22.26-42.83,22.26-25.93,0-44.24-17.47-44.24-40.58,0-29.03,25.93-45.09,66.79-45.09h20.29v-25.08h-77.49v-29.87h109.06v137.8h-31.56v-19.44Z"/>
      <path class="cls-1" d="M1594.64,620.73c8.74-15.5,23.39-24.52,41.71-24.52,35.22,0,57.21,23.67,57.21,62v78.62h-31.56v-74.68c0-21.7-13.24-35.79-33.25-35.79s-34.1,14.09-34.1,35.79v74.68h-31.28v-137.8h31.28v21.7Z"/>
      <path class="cls-1" d="M1791.05,709.78c23.95,0,41.99-18.04,41.99-41.99s-18.04-41.71-41.99-41.71-41.71,18.6-41.71,41.71,18.32,41.99,41.71,41.99ZM1718.34,667.79c0-39.73,29.03-71.58,65.94-71.58,21.98,0,38.89,9.86,48.75,27.05v-83.69h31.56v197.26h-31.56v-24.24c-9.86,17.19-26.77,27.05-48.75,27.05-36.92,0-65.94-32.13-65.94-71.86Z"/>
    </g>
    <g class="cls-7">
      <polygon class="cls-1" points="268.25 585.48 302.06 585.48 330.8 675.1 362.93 585.48 388.01 585.48 420.7 675.1 449.44 585.48 483.26 585.48 433.38 723.28 408.3 723.28 375.61 633.95 342.64 723.28 318.12 723.28 268.25 585.48"/>
      <path class="cls-1" d="M562.72,695.95c22.54,0,40.86-18.04,40.86-41.42s-18.32-41.99-40.86-41.99-41.14,18.32-41.14,41.99,18.04,41.42,41.14,41.42ZM634.01,654.52c0,40.58-31.28,71.58-71.29,71.58s-71.58-31-71.58-71.58,31-71.86,71.58-71.86,71.29,31,71.29,71.86Z"/>
      <path class="cls-1" d="M692.34,607.18c8.74-15.5,23.39-24.52,41.71-24.52,35.22,0,57.21,23.67,57.21,62v78.62h-31.56v-74.68c0-21.7-13.24-35.79-33.25-35.79s-34.1,14.09-34.1,35.79v74.68h-31.28v-137.8h31.28v21.7Z"/>
      <path class="cls-1" d="M888.75,696.23c23.95,0,41.99-18.04,41.99-41.99s-18.04-41.71-41.99-41.71-41.71,18.6-41.71,41.71,18.32,41.99,41.71,41.99ZM816.04,654.24c0-39.73,29.03-71.58,65.94-71.58,21.98,0,38.89,9.86,48.75,27.05v-83.69h31.56v197.26h-31.56v-24.24c-9.86,17.19-26.77,27.05-48.75,27.05-36.92,0-65.94-32.13-65.94-71.86Z"/>
      <path class="cls-1" d="M1093.89,639.03c-1.69-17.19-16.34-29.87-34.94-29.87s-33.53,10.71-38.61,29.87h73.55ZM989.06,653.96c0-40.3,31.28-71.3,71.01-71.3,37.2,0,67.07,29.03,67.07,67.35,0,2.82-.28,8.45-.56,11.84h-107.93c2.82,22.54,18.88,37.48,41.71,37.48,17.75,0,31.28-8.45,34.1-21.42h31c-4.79,29.31-31,48.19-64.81,48.19-40.3,0-71.58-31.28-71.58-72.14Z"/>
      <polygon class="cls-1" points="1232.82 615.35 1185.19 615.35 1185.19 723.28 1153.91 723.28 1153.91 585.48 1232.82 585.48 1232.82 615.35"/>
      <path class="cls-1" d="M1329.19,697.92c23.39,0,41.71-18.6,41.71-41.71s-18.32-41.99-41.71-41.99-42.27,18.04-42.27,41.99,18.04,41.71,42.27,41.71ZM1255.64,526.02h31.28v85.95c9.86-17.47,26.77-27.62,49.03-27.62,36.63,0,65.94,32.13,65.94,71.86s-29.31,71.58-65.94,71.58c-22.26,0-39.17-10.15-49.03-27.62v23.11h-31.28v-197.26Z"/>
      <path class="cls-1" d="M1470.08,700.18c21.42,0,36.35-14.09,36.35-31.28v-6.2h-21.13c-24.24,0-37.2,6.2-37.2,20.29,0,10.43,8.45,17.19,21.98,17.19ZM1506.44,703.84c-9.02,14.65-23.39,22.26-42.83,22.26-25.93,0-44.24-17.47-44.24-40.58,0-29.03,25.93-45.09,66.79-45.09h20.29v-25.08h-77.49v-29.87h109.06v137.8h-31.56v-19.44Z"/>
      <path class="cls-1" d="M1603.93,607.18c8.74-15.5,23.39-24.52,41.71-24.52,35.22,0,57.21,23.67,57.21,62v78.62h-31.56v-74.68c0-21.7-13.24-35.79-33.25-35.79s-34.1,14.09-34.1,35.79v74.68h-31.28v-137.8h31.28v21.7Z"/>
      <path class="cls-1" d="M1800.34,696.23c23.95,0,41.99-18.04,41.99-41.99s-18.04-41.71-41.99-41.71-41.71,18.6-41.71,41.71,18.32,41.99,41.71,41.99ZM1727.64,654.24c0-39.73,29.03-71.58,65.94-71.58,21.98,0,38.89,9.86,48.75,27.05v-83.69h31.56v197.26h-31.56v-24.24c-9.86,17.19-26.77,27.05-48.75,27.05-36.92,0-65.94-32.13-65.94-71.86Z"/>
    </g>
    <g class="cls-6">
      <polygon class="cls-1" points="277.54 571.94 311.36 571.94 340.1 661.55 372.23 571.94 397.31 571.94 429.99 661.55 458.74 571.94 492.55 571.94 442.68 709.74 417.6 709.74 384.91 620.41 351.94 709.74 327.42 709.74 277.54 571.94"/>
      <path class="cls-1" d="M572.01,682.4c22.54,0,40.86-18.04,40.86-41.42s-18.32-41.99-40.86-41.99-41.14,18.32-41.14,41.99,18.04,41.42,41.14,41.42ZM643.31,640.98c0,40.58-31.28,71.58-71.29,71.58s-71.58-31-71.58-71.58,31-71.86,71.58-71.86,71.29,31,71.29,71.86Z"/>
      <path class="cls-1" d="M701.63,593.64c8.74-15.5,23.39-24.52,41.71-24.52,35.22,0,57.21,23.67,57.21,62v78.62h-31.56v-74.68c0-21.7-13.24-35.79-33.25-35.79s-34.1,14.09-34.1,35.79v74.68h-31.28v-137.8h31.28v21.7Z"/>
      <path class="cls-1" d="M898.04,682.69c23.95,0,41.99-18.04,41.99-41.99s-18.04-41.71-41.99-41.71-41.71,18.6-41.71,41.71,18.32,41.99,41.71,41.99ZM825.34,640.7c0-39.73,29.03-71.58,65.94-71.58,21.98,0,38.89,9.86,48.75,27.05v-83.69h31.56v197.26h-31.56v-24.24c-9.86,17.19-26.77,27.05-48.75,27.05-36.92,0-65.94-32.13-65.94-71.86Z"/>
      <path class="cls-1" d="M1103.19,625.48c-1.69-17.19-16.34-29.87-34.94-29.87s-33.53,10.71-38.61,29.87h73.55ZM998.36,640.42c0-40.3,31.28-71.3,71.01-71.3,37.2,0,67.07,29.03,67.07,67.35,0,2.82-.28,8.45-.56,11.84h-107.93c2.82,22.54,18.88,37.48,41.71,37.48,17.75,0,31.28-8.45,34.1-21.42h31c-4.79,29.31-31,48.19-64.81,48.19-40.3,0-71.58-31.28-71.58-72.14Z"/>
      <polygon class="cls-1" points="1242.11 601.81 1194.49 601.81 1194.49 709.74 1163.21 709.74 1163.21 571.94 1242.11 571.94 1242.11 601.81"/>
      <path class="cls-1" d="M1338.49,684.38c23.39,0,41.71-18.6,41.71-41.71s-18.32-41.99-41.71-41.99-42.27,18.04-42.27,41.99,18.04,41.71,42.27,41.71ZM1264.94,512.48h31.28v85.95c9.86-17.47,26.77-27.62,49.03-27.62,36.63,0,65.94,32.13,65.94,71.86s-29.31,71.58-65.94,71.58c-22.26,0-39.17-10.15-49.03-27.62v23.11h-31.28v-197.26Z"/>
      <path class="cls-1" d="M1479.38,686.63c21.42,0,36.35-14.09,36.35-31.28v-6.2h-21.13c-24.24,0-37.2,6.2-37.2,20.29,0,10.43,8.45,17.19,21.98,17.19ZM1515.73,690.3c-9.02,14.65-23.39,22.26-42.83,22.26-25.93,0-44.24-17.47-44.24-40.58,0-29.03,25.93-45.09,66.79-45.09h20.29v-25.08h-77.49v-29.87h109.06v137.8h-31.56v-19.44Z"/>
      <path class="cls-1" d="M1613.23,593.64c8.74-15.5,23.39-24.52,41.71-24.52,35.22,0,57.21,23.67,57.21,62v78.62h-31.56v-74.68c0-21.7-13.24-35.79-33.25-35.79s-34.1,14.09-34.1,35.79v74.68h-31.28v-137.8h31.28v21.7Z"/>
      <path class="cls-1" d="M1809.64,682.69c23.95,0,41.99-18.04,41.99-41.99s-18.04-41.71-41.99-41.71-41.71,18.6-41.71,41.71,18.32,41.99,41.71,41.99ZM1736.93,640.7c0-39.73,29.03-71.58,65.94-71.58,21.98,0,38.89,9.86,48.75,27.05v-83.69h31.56v197.26h-31.56v-24.24c-9.86,17.19-26.77,27.05-48.75,27.05-36.92,0-65.94-32.13-65.94-71.86Z"/>
    </g>
    <g class="cls-8">
      <polygon class="cls-1" points="286.84 558.39 320.65 558.39 349.4 648.01 381.52 558.39 406.6 558.39 439.29 648.01 468.03 558.39 501.85 558.39 451.97 696.2 426.89 696.2 394.2 606.86 361.23 696.2 336.72 696.2 286.84 558.39"/>
      <path class="cls-1" d="M581.31,668.86c22.54,0,40.86-18.04,40.86-41.42s-18.32-41.99-40.86-41.99-41.14,18.32-41.14,41.99,18.04,41.42,41.14,41.42ZM652.6,627.44c0,40.58-31.28,71.58-71.29,71.58s-71.58-31-71.58-71.58,31-71.86,71.58-71.86,71.29,31,71.29,71.86Z"/>
      <path class="cls-1" d="M710.93,580.09c8.74-15.5,23.39-24.52,41.71-24.52,35.22,0,57.21,23.67,57.21,62v78.62h-31.56v-74.68c0-21.7-13.24-35.79-33.25-35.79s-34.1,14.09-34.1,35.79v74.68h-31.28v-137.8h31.28v21.7Z"/>
      <path class="cls-1" d="M907.34,669.14c23.95,0,41.99-18.04,41.99-41.99s-18.04-41.71-41.99-41.71-41.71,18.6-41.71,41.71,18.32,41.99,41.71,41.99ZM834.64,627.15c0-39.73,29.03-71.58,65.94-71.58,21.98,0,38.89,9.86,48.75,27.05v-83.69h31.56v197.26h-31.56v-24.24c-9.86,17.19-26.77,27.05-48.75,27.05-36.92,0-65.94-32.13-65.94-71.86Z"/>
      <path class="cls-1" d="M1112.49,611.94c-1.69-17.19-16.34-29.87-34.94-29.87s-33.53,10.71-38.61,29.87h73.55ZM1007.66,626.87c0-40.3,31.28-71.3,71.01-71.3,37.2,0,67.07,29.03,67.07,67.35,0,2.82-.28,8.45-.56,11.84h-107.93c2.82,22.54,18.88,37.48,41.71,37.48,17.75,0,31.28-8.45,34.1-21.42h31c-4.79,29.31-31,48.19-64.81,48.19-40.3,0-71.58-31.28-71.58-72.14Z"/>
      <polygon class="cls-1" points="1251.41 588.27 1203.79 588.27 1203.79 696.2 1172.51 696.2 1172.51 558.39 1251.41 558.39 1251.41 588.27"/>
      <path class="cls-1" d="M1347.78,670.83c23.39,0,41.71-18.6,41.71-41.71s-18.32-41.99-41.71-41.99-42.27,18.04-42.27,41.99,18.04,41.71,42.27,41.71ZM1274.23,498.94h31.28v85.95c9.86-17.47,26.77-27.62,49.03-27.62,36.63,0,65.94,32.13,65.94,71.86s-29.31,71.58-65.94,71.58c-22.26,0-39.17-10.15-49.03-27.62v23.11h-31.28v-197.26Z"/>
      <path class="cls-1" d="M1488.68,673.09c21.42,0,36.35-14.09,36.35-31.28v-6.2h-21.13c-24.24,0-37.2,6.2-37.2,20.29,0,10.43,8.45,17.19,21.98,17.19ZM1525.03,676.75c-9.02,14.65-23.39,22.26-42.83,22.26-25.93,0-44.24-17.47-44.24-40.58,0-29.03,25.93-45.09,66.79-45.09h20.29v-25.08h-77.49v-29.87h109.06v137.8h-31.56v-19.44Z"/>
      <path class="cls-1" d="M1622.52,580.09c8.74-15.5,23.39-24.52,41.71-24.52,35.22,0,57.21,23.67,57.21,62v78.62h-31.56v-74.68c0-21.7-13.24-35.79-33.25-35.79s-34.1,14.09-34.1,35.79v74.68h-31.28v-137.8h31.28v21.7Z"/>
      <path class="cls-1" d="M1818.93,669.14c23.95,0,41.99-18.04,41.99-41.99s-18.04-41.71-41.99-41.71-41.71,18.6-41.71,41.71,18.32,41.99,41.71,41.99ZM1746.23,627.15c0-39.73,29.03-71.58,65.94-71.58,21.98,0,38.89,9.86,48.75,27.05v-83.69h31.56v197.26h-31.56v-24.24c-9.86,17.19-26.77,27.05-48.75,27.05-36.92,0-65.94-32.13-65.94-71.86Z"/>
    </g>
    <g>
      <path class="cls-1" d="M296.13,544.85h33.82l28.74,89.61,32.13-89.61h25.08l32.69,89.61,28.74-89.61h33.82l-49.88,137.8h-25.08l-32.69-89.33-32.97,89.33h-24.52l-49.88-137.8Z"/>
      <path class="cls-1" d="M590.61,655.32c22.54,0,40.86-18.04,40.86-41.42s-18.32-41.99-40.86-41.99-41.14,18.32-41.14,41.99,18.04,41.42,41.14,41.42ZM661.9,613.89c0,40.58-31.28,71.58-71.29,71.58s-71.58-31-71.58-71.58,31-71.86,71.58-71.86,71.29,31,71.29,71.86Z"/>
      <path class="cls-1" d="M720.23,566.55c8.74-15.5,23.39-24.52,41.71-24.52,35.22,0,57.21,23.67,57.21,62v78.62h-31.56v-74.68c0-21.7-13.24-35.79-33.25-35.79s-34.1,14.09-34.1,35.79v74.68h-31.28v-137.8h31.28v21.7Z"/>
      <path class="cls-1" d="M916.64,655.6c23.95,0,41.99-18.04,41.99-41.99s-18.04-41.71-41.99-41.71-41.71,18.6-41.71,41.71,18.32,41.99,41.71,41.99ZM843.93,613.61c0-39.73,29.03-71.58,65.94-71.58,21.98,0,38.89,9.86,48.75,27.05v-83.69h31.56v197.26h-31.56v-24.24c-9.86,17.19-26.77,27.05-48.75,27.05-36.92,0-65.94-32.13-65.94-71.86Z"/>
      <path class="cls-1" d="M1121.78,598.39c-1.69-17.19-16.34-29.87-34.94-29.87s-33.53,10.71-38.61,29.87h73.55ZM1016.95,613.33c0-40.3,31.28-71.3,71.01-71.3,37.2,0,67.07,29.03,67.07,67.35,0,2.82-.28,8.45-.56,11.84h-107.93c2.82,22.54,18.88,37.48,41.71,37.48,17.75,0,31.28-8.45,34.1-21.42h31c-4.79,29.31-31,48.19-64.81,48.19-40.3,0-71.58-31.28-71.58-72.14Z"/>
      <path class="cls-1" d="M1260.71,574.72h-47.62v107.93h-31.28v-137.8h78.9v29.87Z"/>
      <path class="cls-1" d="M1357.08,657.29c23.39,0,41.71-18.6,41.71-41.71s-18.32-41.99-41.71-41.99-42.27,18.04-42.27,41.99,18.04,41.71,42.27,41.71ZM1283.53,485.39h31.28v85.95c9.86-17.47,26.77-27.62,49.03-27.62,36.63,0,65.94,32.13,65.94,71.86s-29.31,71.58-65.94,71.58c-22.26,0-39.17-10.15-49.03-27.62v23.11h-31.28v-197.26Z"/>
      <path class="cls-1" d="M1497.97,659.54c21.42,0,36.35-14.09,36.35-31.28v-6.2h-21.13c-24.24,0-37.2,6.2-37.2,20.29,0,10.43,8.45,17.19,21.98,17.19ZM1534.32,663.21c-9.02,14.65-23.39,22.26-42.83,22.26-25.93,0-44.24-17.47-44.24-40.58,0-29.03,25.93-45.09,66.79-45.09h20.29v-25.08h-77.49v-29.87h109.06v137.8h-31.56v-19.44Z"/>
      <path class="cls-1" d="M1631.82,566.55c8.74-15.5,23.39-24.52,41.71-24.52,35.22,0,57.21,23.67,57.21,62v78.62h-31.56v-74.68c0-21.7-13.24-35.79-33.25-35.79s-34.1,14.09-34.1,35.79v74.68h-31.28v-137.8h31.28v21.7Z"/>
      <path class="cls-1" d="M1828.23,655.6c23.95,0,41.99-18.04,41.99-41.99s-18.04-41.71-41.99-41.71-41.71,18.6-41.71,41.71,18.32,41.99,41.71,41.99ZM1755.52,613.61c0-39.73,29.03-71.58,65.94-71.58,21.98,0,38.89,9.86,48.75,27.05v-83.69h31.56v197.26h-31.56v-24.24c-9.86,17.19-26.77,27.05-48.75,27.05-36.92,0-65.94-32.13-65.94-71.86Z"/>
    </g>
  </g>
</svg>